<svg version="1.1" xmlns="http://www.w3.org/2000/svg" xmlns:xlink="http://www.w3.org/1999/xlink" x="0px" y="0px"
	 viewBox="0 0 72 72" style="enable-background:new 0 0 72 72;" xml:space="preserve">
<style type="text/css">
	.st0{fill:none;}
</style>
<pattern  width="72" height="72" patternUnits="userSpaceOnUse" id="New_Pattern_Swatch_1" viewBox="0 -72 72 72" style="overflow:visible;">
	<g>
		<rect y="-72" class="st0" width="72" height="72"/>
		<g>
			<polygon points="3,-71 3,-70 4,-70 4,-67 5,-67 5,-70 6,-70 6,-71 			"/>
			<rect x="1" y="-68" width="1" height="1"/>
			<rect x="2" y="-67" width="2" height="1"/>
		</g>
		<g>
			<polygon points="11,-63 11,-62 12,-62 12,-59 13,-59 13,-62 14,-62 14,-63 			"/>
			<rect x="10" y="-59" width="2" height="1"/>
			<rect x="9" y="-60" width="1" height="1"/>
		</g>
		<g>
			<polygon points="35,-63 35,-62 36,-62 36,-59 37,-59 37,-62 38,-62 38,-63 			"/>
			<rect x="34" y="-59" width="2" height="1"/>
			<rect x="33" y="-60" width="1" height="1"/>
		</g>
		<g>
			<polygon points="43,-55 43,-54 44,-54 44,-51 45,-51 45,-54 46,-54 46,-55 			"/>
			<rect x="42" y="-51" width="2" height="1"/>
			<rect x="41" y="-52" width="1" height="1"/>
		</g>
		<g>
			<rect x="17" y="-55" width="1" height="4"/>
			<rect x="19" y="-53" width="1" height="2"/>
			<rect x="18" y="-51" width="1" height="1"/>
			<rect x="21" y="-55" width="1" height="4"/>
			<rect x="20" y="-51" width="1" height="1"/>
		</g>
		<g>
			<rect x="25" y="-71" width="1" height="4"/>
			<rect x="27" y="-69" width="1" height="2"/>
			<rect x="26" y="-67" width="1" height="1"/>
			<rect x="29" y="-71" width="1" height="4"/>
			<rect x="28" y="-67" width="1" height="1"/>
		</g>
		<g>
			<rect x="57" y="-63" width="1" height="4"/>
			<rect x="59" y="-61" width="1" height="2"/>
			<rect x="58" y="-59" width="1" height="1"/>
			<rect x="61" y="-63" width="1" height="4"/>
			<rect x="60" y="-59" width="1" height="1"/>
		</g>
		<g>
			<polygon points="51,-71 51,-70 52,-70 52,-67 53,-67 53,-70 54,-70 54,-71 			"/>
			<rect x="49" y="-68" width="1" height="1"/>
			<rect x="50" y="-67" width="2" height="1"/>
		</g>
		<g>
			<polygon points="67,-55 67,-54 68,-54 68,-51 69,-51 69,-54 70,-54 70,-55 			"/>
			<rect x="66" y="-51" width="2" height="1"/>
			<rect x="65" y="-52" width="1" height="1"/>
		</g>
		<g>
			<polygon points="27,-47 27,-46 28,-46 28,-43 29,-43 29,-46 30,-46 30,-47 			"/>
			<rect x="25" y="-44" width="1" height="1"/>
			<rect x="26" y="-43" width="2" height="1"/>
		</g>
		<g>
			<polygon points="35,-39 35,-38 36,-38 36,-35 37,-35 37,-38 38,-38 38,-39 			"/>
			<rect x="34" y="-35" width="2" height="1"/>
			<rect x="33" y="-36" width="1" height="1"/>
		</g>
		<g>
			<polygon points="59,-39 59,-38 60,-38 60,-35 61,-35 61,-38 62,-38 62,-39 			"/>
			<rect x="58" y="-35" width="2" height="1"/>
			<rect x="57" y="-36" width="1" height="1"/>
		</g>
		<g>
			<polygon points="67,-31 67,-30 68,-30 68,-27 69,-27 69,-30 70,-30 70,-31 			"/>
			<rect x="66" y="-27" width="2" height="1"/>
			<rect x="65" y="-28" width="1" height="1"/>
		</g>
		<g>
			<rect x="41" y="-31" width="1" height="4"/>
			<rect x="43" y="-29" width="1" height="2"/>
			<rect x="42" y="-27" width="1" height="1"/>
			<rect x="45" y="-31" width="1" height="4"/>
			<rect x="44" y="-27" width="1" height="1"/>
		</g>
		<g>
			<rect x="49" y="-48" width="1" height="4"/>
			<rect x="51" y="-46" width="1" height="2"/>
			<rect x="50" y="-44" width="1" height="1"/>
			<rect x="53" y="-48" width="1" height="4"/>
			<rect x="52" y="-44" width="1" height="1"/>
		</g>
		<g>
			<rect x="9" y="-39" width="1" height="4"/>
			<rect x="11" y="-37" width="1" height="2"/>
			<rect x="10" y="-35" width="1" height="1"/>
			<rect x="13" y="-39" width="1" height="4"/>
			<rect x="12" y="-35" width="1" height="1"/>
		</g>
		<g>
			<polygon points="3,-47 3,-46 4,-46 4,-43 5,-43 5,-46 6,-46 6,-47 			"/>
			<rect x="1" y="-44" width="1" height="1"/>
			<rect x="2" y="-43" width="2" height="1"/>
		</g>
		<g>
			<polygon points="19,-31 19,-30 20,-30 20,-27 21,-27 21,-30 22,-30 22,-31 			"/>
			<rect x="18" y="-27" width="2" height="1"/>
			<rect x="17" y="-28" width="1" height="1"/>
		</g>
		<g>
			<polygon points="51,-23 51,-22 52,-22 52,-19 53,-19 53,-22 54,-22 54,-23 			"/>
			<rect x="49" y="-20" width="1" height="1"/>
			<rect x="50" y="-19" width="2" height="1"/>
		</g>
		<g>
			<polygon points="59,-15 59,-14 60,-14 60,-11 61,-11 61,-14 62,-14 62,-15 			"/>
			<rect x="58" y="-11" width="2" height="1"/>
			<rect x="57" y="-12" width="1" height="1"/>
		</g>
		<g>
			<rect x="65" y="-7" width="1" height="4"/>
			<rect x="67" y="-5" width="1" height="2"/>
			<rect x="66" y="-3" width="1" height="1"/>
			<rect x="69" y="-7" width="1" height="4"/>
			<rect x="68" y="-3" width="1" height="1"/>
		</g>
		<g>
			<rect x="33" y="-15" width="1" height="4"/>
			<rect x="35" y="-13" width="1" height="2"/>
			<rect x="34" y="-11" width="1" height="1"/>
			<rect x="37" y="-15" width="1" height="4"/>
			<rect x="36" y="-11" width="1" height="1"/>
		</g>
		<g>
			<polygon points="27,-23 27,-22 28,-22 28,-19 29,-19 29,-22 30,-22 30,-23 			"/>
			<rect x="25" y="-20" width="1" height="1"/>
			<rect x="26" y="-19" width="2" height="1"/>
		</g>
		<g>
			<polygon points="43,-7 43,-6 44,-6 44,-3 45,-3 45,-6 46,-6 46,-7 			"/>
			<rect x="42" y="-3" width="2" height="1"/>
			<rect x="41" y="-4" width="1" height="1"/>
		</g>
		<g>
			<polygon points="11,-15 11,-14 12,-14 12,-11 13,-11 13,-14 14,-14 14,-15 			"/>
			<rect x="10" y="-11" width="2" height="1"/>
			<rect x="9" y="-12" width="1" height="1"/>
		</g>
		<g>
			<polygon points="19,-7 19,-6 20,-6 20,-3 21,-3 21,-6 22,-6 22,-7 			"/>
			<rect x="18" y="-3" width="2" height="1"/>
			<rect x="17" y="-4" width="1" height="1"/>
		</g>
		<g>
			<rect x="1" y="-24" width="1" height="4"/>
			<rect x="3" y="-22" width="1" height="2"/>
			<rect x="2" y="-20" width="1" height="1"/>
			<rect x="5" y="-24" width="1" height="4"/>
			<rect x="4" y="-20" width="1" height="1"/>
		</g>
	</g>
</pattern>
<rect class="st0" width="72" height="72"/>
<g>
	<polygon points="3,1 3,2 4,2 4,5 5,5 5,2 6,2 6,1 	"/>
	<rect x="1" y="4" width="1" height="1"/>
	<rect x="2" y="5" width="2" height="1"/>
</g>
<g>
	<polygon points="11,9 11,10 12,10 12,13 13,13 13,10 14,10 14,9 	"/>
	<rect x="10" y="13" width="2" height="1"/>
	<rect x="9" y="12" width="1" height="1"/>
</g>
<g>
	<polygon points="35,9 35,10 36,10 36,13 37,13 37,10 38,10 38,9 	"/>
	<rect x="34" y="13" width="2" height="1"/>
	<rect x="33" y="12" width="1" height="1"/>
</g>
<g>
	<polygon points="43,17 43,18 44,18 44,21 45,21 45,18 46,18 46,17 	"/>
	<rect x="42" y="21" width="2" height="1"/>
	<rect x="41" y="20" width="1" height="1"/>
</g>
<g>
	<rect x="17" y="17" width="1" height="4"/>
	<rect x="19" y="19" width="1" height="2"/>
	<rect x="18" y="21" width="1" height="1"/>
	<rect x="21" y="17" width="1" height="4"/>
	<rect x="20" y="21" width="1" height="1"/>
</g>
<g>
	<rect x="25" y="1" width="1" height="4"/>
	<rect x="27" y="3" width="1" height="2"/>
	<rect x="26" y="5" width="1" height="1"/>
	<rect x="29" y="1" width="1" height="4"/>
	<rect x="28" y="5" width="1" height="1"/>
</g>
<g>
	<rect x="57" y="9" width="1" height="4"/>
	<rect x="59" y="11" width="1" height="2"/>
	<rect x="58" y="13" width="1" height="1"/>
	<rect x="61" y="9" width="1" height="4"/>
	<rect x="60" y="13" width="1" height="1"/>
</g>
<g>
	<polygon points="51,1 51,2 52,2 52,5 53,5 53,2 54,2 54,1 	"/>
	<rect x="49" y="4" width="1" height="1"/>
	<rect x="50" y="5" width="2" height="1"/>
</g>
<g>
	<polygon points="67,17 67,18 68,18 68,21 69,21 69,18 70,18 70,17 	"/>
	<rect x="66" y="21" width="2" height="1"/>
	<rect x="65" y="20" width="1" height="1"/>
</g>
<g>
	<polygon points="27,25 27,26 28,26 28,29 29,29 29,26 30,26 30,25 	"/>
	<rect x="25" y="28" width="1" height="1"/>
	<rect x="26" y="29" width="2" height="1"/>
</g>
<g>
	<polygon points="35,33 35,34 36,34 36,37 37,37 37,34 38,34 38,33 	"/>
	<rect x="34" y="37" width="2" height="1"/>
	<rect x="33" y="36" width="1" height="1"/>
</g>
<g>
	<polygon points="59,33 59,34 60,34 60,37 61,37 61,34 62,34 62,33 	"/>
	<rect x="58" y="37" width="2" height="1"/>
	<rect x="57" y="36" width="1" height="1"/>
</g>
<g>
	<polygon points="67,41 67,42 68,42 68,45 69,45 69,42 70,42 70,41 	"/>
	<rect x="66" y="45" width="2" height="1"/>
	<rect x="65" y="44" width="1" height="1"/>
</g>
<g>
	<rect x="41" y="41" width="1" height="4"/>
	<rect x="43" y="43" width="1" height="2"/>
	<rect x="42" y="45" width="1" height="1"/>
	<rect x="45" y="41" width="1" height="4"/>
	<rect x="44" y="45" width="1" height="1"/>
</g>
<g>
	<rect x="49" y="24" width="1" height="4"/>
	<rect x="51" y="26" width="1" height="2"/>
	<rect x="50" y="28" width="1" height="1"/>
	<rect x="53" y="24" width="1" height="4"/>
	<rect x="52" y="28" width="1" height="1"/>
</g>
<g>
	<rect x="9" y="33" width="1" height="4"/>
	<rect x="11" y="35" width="1" height="2"/>
	<rect x="10" y="37" width="1" height="1"/>
	<rect x="13" y="33" width="1" height="4"/>
	<rect x="12" y="37" width="1" height="1"/>
</g>
<g>
	<polygon points="3,25 3,26 4,26 4,29 5,29 5,26 6,26 6,25 	"/>
	<rect x="1" y="28" width="1" height="1"/>
	<rect x="2" y="29" width="2" height="1"/>
</g>
<g>
	<polygon points="19,41 19,42 20,42 20,45 21,45 21,42 22,42 22,41 	"/>
	<rect x="18" y="45" width="2" height="1"/>
	<rect x="17" y="44" width="1" height="1"/>
</g>
<g>
	<polygon points="51,49 51,50 52,50 52,53 53,53 53,50 54,50 54,49 	"/>
	<rect x="49" y="52" width="1" height="1"/>
	<rect x="50" y="53" width="2" height="1"/>
</g>
<g>
	<polygon points="59,57 59,58 60,58 60,61 61,61 61,58 62,58 62,57 	"/>
	<rect x="58" y="61" width="2" height="1"/>
	<rect x="57" y="60" width="1" height="1"/>
</g>
<g>
	<rect x="65" y="65" width="1" height="4"/>
	<rect x="67" y="67" width="1" height="2"/>
	<rect x="66" y="69" width="1" height="1"/>
	<rect x="69" y="65" width="1" height="4"/>
	<rect x="68" y="69" width="1" height="1"/>
</g>
<g>
	<rect x="33" y="57" width="1" height="4"/>
	<rect x="35" y="59" width="1" height="2"/>
	<rect x="34" y="61" width="1" height="1"/>
	<rect x="37" y="57" width="1" height="4"/>
	<rect x="36" y="61" width="1" height="1"/>
</g>
<g>
	<polygon points="27,49 27,50 28,50 28,53 29,53 29,50 30,50 30,49 	"/>
	<rect x="25" y="52" width="1" height="1"/>
	<rect x="26" y="53" width="2" height="1"/>
</g>
<g>
	<polygon points="43,65 43,66 44,66 44,69 45,69 45,66 46,66 46,65 	"/>
	<rect x="42" y="69" width="2" height="1"/>
	<rect x="41" y="68" width="1" height="1"/>
</g>
<g>
	<polygon points="11,57 11,58 12,58 12,61 13,61 13,58 14,58 14,57 	"/>
	<rect x="10" y="61" width="2" height="1"/>
	<rect x="9" y="60" width="1" height="1"/>
</g>
<g>
	<polygon points="19,65 19,66 20,66 20,69 21,69 21,66 22,66 22,65 	"/>
	<rect x="18" y="69" width="2" height="1"/>
	<rect x="17" y="68" width="1" height="1"/>
</g>
<g>
	<rect x="1" y="48" width="1" height="4"/>
	<rect x="3" y="50" width="1" height="2"/>
	<rect x="2" y="52" width="1" height="1"/>
	<rect x="5" y="48" width="1" height="4"/>
	<rect x="4" y="52" width="1" height="1"/>
</g>
<g>
	<polygon points="3,-119 3,-118 4,-118 4,-115 5,-115 5,-118 6,-118 6,-119 	"/>
	<rect x="1" y="-116" width="1" height="1"/>
	<rect x="2" y="-115" width="2" height="1"/>
</g>
<g>
	<polygon points="9,-113 9,-112 10,-112 10,-109 11,-109 11,-112 12,-112 12,-113 	"/>
	<rect x="8" y="-109" width="2" height="1"/>
	<rect x="7" y="-110" width="1" height="1"/>
</g>
<g>
	<polygon points="27,-113 27,-112 28,-112 28,-109 29,-109 29,-112 30,-112 30,-113 	"/>
	<rect x="26" y="-109" width="2" height="1"/>
	<rect x="25" y="-110" width="1" height="1"/>
</g>
<g>
	<polygon points="33,-107 33,-106 34,-106 34,-103 35,-103 35,-106 36,-106 36,-107 	"/>
	<rect x="32" y="-103" width="2" height="1"/>
	<rect x="31" y="-104" width="1" height="1"/>
</g>
<g>
	<rect x="13" y="-107" width="1" height="4"/>
	<rect x="15" y="-105" width="1" height="2"/>
	<rect x="14" y="-103" width="1" height="1"/>
	<rect x="17" y="-107" width="1" height="4"/>
	<rect x="16" y="-103" width="1" height="1"/>
</g>
<g>
	<rect x="19" y="-120" width="1" height="4"/>
	<rect x="21" y="-118" width="1" height="2"/>
	<rect x="20" y="-116" width="1" height="1"/>
	<rect x="23" y="-120" width="1" height="4"/>
	<rect x="22" y="-116" width="1" height="1"/>
</g>
<g>
	<rect x="43" y="-113" width="1" height="4"/>
	<rect x="45" y="-111" width="1" height="2"/>
	<rect x="44" y="-109" width="1" height="1"/>
	<rect x="47" y="-113" width="1" height="4"/>
	<rect x="46" y="-109" width="1" height="1"/>
</g>
<g>
	<polygon points="39,-119 39,-118 40,-118 40,-115 41,-115 41,-118 42,-118 42,-119 	"/>
	<rect x="37" y="-116" width="1" height="1"/>
	<rect x="38" y="-115" width="2" height="1"/>
</g>
<g>
	<polygon points="51,-107 51,-106 52,-106 52,-103 53,-103 53,-106 54,-106 54,-107 	"/>
	<rect x="50" y="-103" width="2" height="1"/>
	<rect x="49" y="-104" width="1" height="1"/>
</g>
<g>
	<polygon points="57,-119 57,-118 58,-118 58,-115 59,-115 59,-118 60,-118 60,-119 	"/>
	<rect x="55" y="-116" width="1" height="1"/>
	<rect x="56" y="-115" width="2" height="1"/>
</g>
<g>
	<polygon points="63,-113 63,-112 64,-112 64,-109 65,-109 65,-112 66,-112 66,-113 	"/>
	<rect x="62" y="-109" width="2" height="1"/>
	<rect x="61" y="-110" width="1" height="1"/>
</g>
<g>
	<polygon points="81,-113 81,-112 82,-112 82,-109 83,-109 83,-112 84,-112 84,-113 	"/>
	<rect x="80" y="-109" width="2" height="1"/>
	<rect x="79" y="-110" width="1" height="1"/>
</g>
<g>
	<polygon points="87,-107 87,-106 88,-106 88,-103 89,-103 89,-106 90,-106 90,-107 	"/>
	<rect x="86" y="-103" width="2" height="1"/>
	<rect x="85" y="-104" width="1" height="1"/>
</g>
<g>
	<rect x="67" y="-107" width="1" height="4"/>
	<rect x="69" y="-105" width="1" height="2"/>
	<rect x="68" y="-103" width="1" height="1"/>
	<rect x="71" y="-107" width="1" height="4"/>
	<rect x="70" y="-103" width="1" height="1"/>
</g>
<g>
	<rect x="73" y="-120" width="1" height="4"/>
	<rect x="75" y="-118" width="1" height="2"/>
	<rect x="74" y="-116" width="1" height="1"/>
	<rect x="77" y="-120" width="1" height="4"/>
	<rect x="76" y="-116" width="1" height="1"/>
</g>
<g>
	<rect x="97" y="-113" width="1" height="4"/>
	<rect x="99" y="-111" width="1" height="2"/>
	<rect x="98" y="-109" width="1" height="1"/>
	<rect x="101" y="-113" width="1" height="4"/>
	<rect x="100" y="-109" width="1" height="1"/>
</g>
<g>
	<polygon points="93,-119 93,-118 94,-118 94,-115 95,-115 95,-118 96,-118 96,-119 	"/>
	<rect x="91" y="-116" width="1" height="1"/>
	<rect x="92" y="-115" width="2" height="1"/>
</g>
<g>
	<polygon points="105,-107 105,-106 106,-106 106,-103 107,-103 107,-106 108,-106 108,-107 	"/>
	<rect x="104" y="-103" width="2" height="1"/>
	<rect x="103" y="-104" width="1" height="1"/>
</g>
<g>
	<polygon points="111,-119 111,-118 112,-118 112,-115 113,-115 113,-118 114,-118 114,-119 	"/>
	<rect x="109" y="-116" width="1" height="1"/>
	<rect x="110" y="-115" width="2" height="1"/>
</g>
<g>
	<polygon points="117,-113 117,-112 118,-112 118,-109 119,-109 119,-112 120,-112 120,-113 	"/>
	<rect x="116" y="-109" width="2" height="1"/>
	<rect x="115" y="-110" width="1" height="1"/>
</g>
<g>
	<rect x="121" y="-107" width="1" height="4"/>
	<rect x="123" y="-105" width="1" height="2"/>
	<rect x="122" y="-103" width="1" height="1"/>
	<rect x="125" y="-107" width="1" height="4"/>
	<rect x="124" y="-103" width="1" height="1"/>
</g>
<g>
	<polygon points="21,-101 21,-100 22,-100 22,-97 23,-97 23,-100 24,-100 24,-101 	"/>
	<rect x="19" y="-98" width="1" height="1"/>
	<rect x="20" y="-97" width="2" height="1"/>
</g>
<g>
	<polygon points="27,-95 27,-94 28,-94 28,-91 29,-91 29,-94 30,-94 30,-95 	"/>
	<rect x="26" y="-91" width="2" height="1"/>
	<rect x="25" y="-92" width="1" height="1"/>
</g>
<g>
	<polygon points="45,-95 45,-94 46,-94 46,-91 47,-91 47,-94 48,-94 48,-95 	"/>
	<rect x="44" y="-91" width="2" height="1"/>
	<rect x="43" y="-92" width="1" height="1"/>
</g>
<g>
	<polygon points="51,-89 51,-88 52,-88 52,-85 53,-85 53,-88 54,-88 54,-89 	"/>
	<rect x="50" y="-85" width="2" height="1"/>
	<rect x="49" y="-86" width="1" height="1"/>
</g>
<g>
	<rect x="31" y="-89" width="1" height="4"/>
	<rect x="33" y="-87" width="1" height="2"/>
	<rect x="32" y="-85" width="1" height="1"/>
	<rect x="35" y="-89" width="1" height="4"/>
	<rect x="34" y="-85" width="1" height="1"/>
</g>
<g>
	<rect x="37" y="-102" width="1" height="4"/>
	<rect x="39" y="-100" width="1" height="2"/>
	<rect x="38" y="-98" width="1" height="1"/>
	<rect x="41" y="-102" width="1" height="4"/>
	<rect x="40" y="-98" width="1" height="1"/>
</g>
<g>
	<rect x="61" y="-95" width="1" height="4"/>
	<rect x="63" y="-93" width="1" height="2"/>
	<rect x="62" y="-91" width="1" height="1"/>
	<rect x="65" y="-95" width="1" height="4"/>
	<rect x="64" y="-91" width="1" height="1"/>
</g>
<g>
	<polygon points="57,-101 57,-100 58,-100 58,-97 59,-97 59,-100 60,-100 60,-101 	"/>
	<rect x="55" y="-98" width="1" height="1"/>
	<rect x="56" y="-97" width="2" height="1"/>
</g>
<g>
	<polygon points="69,-89 69,-88 70,-88 70,-85 71,-85 71,-88 72,-88 72,-89 	"/>
	<rect x="68" y="-85" width="2" height="1"/>
	<rect x="67" y="-86" width="1" height="1"/>
</g>
<g>
	<rect x="7" y="-95" width="1" height="4"/>
	<rect x="9" y="-93" width="1" height="2"/>
	<rect x="8" y="-91" width="1" height="1"/>
	<rect x="11" y="-95" width="1" height="4"/>
	<rect x="10" y="-91" width="1" height="1"/>
</g>
<g>
	<polygon points="3,-101 3,-100 4,-100 4,-97 5,-97 5,-100 6,-100 6,-101 	"/>
	<rect x="1" y="-98" width="1" height="1"/>
	<rect x="2" y="-97" width="2" height="1"/>
</g>
<g>
	<polygon points="15,-89 15,-88 16,-88 16,-85 17,-85 17,-88 18,-88 18,-89 	"/>
	<rect x="14" y="-85" width="2" height="1"/>
	<rect x="13" y="-86" width="1" height="1"/>
</g>
<g>
	<polygon points="75,-101 75,-100 76,-100 76,-97 77,-97 77,-100 78,-100 78,-101 	"/>
	<rect x="73" y="-98" width="1" height="1"/>
	<rect x="74" y="-97" width="2" height="1"/>
</g>
<g>
	<polygon points="81,-95 81,-94 82,-94 82,-91 83,-91 83,-94 84,-94 84,-95 	"/>
	<rect x="80" y="-91" width="2" height="1"/>
	<rect x="79" y="-92" width="1" height="1"/>
</g>
<g>
	<polygon points="99,-95 99,-94 100,-94 100,-91 101,-91 101,-94 102,-94 102,-95 	"/>
	<rect x="98" y="-91" width="2" height="1"/>
	<rect x="97" y="-92" width="1" height="1"/>
</g>
<g>
	<polygon points="105,-89 105,-88 106,-88 106,-85 107,-85 107,-88 108,-88 108,-89 	"/>
	<rect x="104" y="-85" width="2" height="1"/>
	<rect x="103" y="-86" width="1" height="1"/>
</g>
<g>
	<rect x="85" y="-89" width="1" height="4"/>
	<rect x="87" y="-87" width="1" height="2"/>
	<rect x="86" y="-85" width="1" height="1"/>
	<rect x="89" y="-89" width="1" height="4"/>
	<rect x="88" y="-85" width="1" height="1"/>
</g>
<g>
	<rect x="91" y="-102" width="1" height="4"/>
	<rect x="93" y="-100" width="1" height="2"/>
	<rect x="92" y="-98" width="1" height="1"/>
	<rect x="95" y="-102" width="1" height="4"/>
	<rect x="94" y="-98" width="1" height="1"/>
</g>
<g>
	<rect x="115" y="-95" width="1" height="4"/>
	<rect x="117" y="-93" width="1" height="2"/>
	<rect x="116" y="-91" width="1" height="1"/>
	<rect x="119" y="-95" width="1" height="4"/>
	<rect x="118" y="-91" width="1" height="1"/>
</g>
<g>
	<polygon points="111,-101 111,-100 112,-100 112,-97 113,-97 113,-100 114,-100 114,-101 	"/>
	<rect x="109" y="-98" width="1" height="1"/>
	<rect x="110" y="-97" width="2" height="1"/>
</g>
<g>
	<polygon points="123,-89 123,-88 124,-88 124,-85 125,-85 125,-88 126,-88 126,-89 	"/>
	<rect x="122" y="-85" width="2" height="1"/>
	<rect x="121" y="-86" width="1" height="1"/>
</g>
<g>
	<polygon points="39,-83 39,-82 40,-82 40,-79 41,-79 41,-82 42,-82 42,-83 	"/>
	<rect x="37" y="-80" width="1" height="1"/>
	<rect x="38" y="-79" width="2" height="1"/>
</g>
<g>
	<polygon points="45,-77 45,-76 46,-76 46,-73 47,-73 47,-76 48,-76 48,-77 	"/>
	<rect x="44" y="-73" width="2" height="1"/>
	<rect x="43" y="-74" width="1" height="1"/>
</g>
<g>
	<polygon points="63,-77 63,-76 64,-76 64,-73 65,-73 65,-76 66,-76 66,-77 	"/>
	<rect x="62" y="-73" width="2" height="1"/>
	<rect x="61" y="-74" width="1" height="1"/>
</g>
<g>
	<polygon points="69,-71 69,-70 70,-70 70,-67 71,-67 71,-70 72,-70 72,-71 	"/>
	<rect x="68" y="-67" width="2" height="1"/>
	<rect x="67" y="-68" width="1" height="1"/>
</g>
<g>
	<rect x="49" y="-71" width="1" height="4"/>
	<rect x="51" y="-69" width="1" height="2"/>
	<rect x="50" y="-67" width="1" height="1"/>
	<rect x="53" y="-71" width="1" height="4"/>
	<rect x="52" y="-67" width="1" height="1"/>
</g>
<g>
	<rect x="55" y="-84" width="1" height="4"/>
	<rect x="57" y="-82" width="1" height="2"/>
	<rect x="56" y="-80" width="1" height="1"/>
	<rect x="59" y="-84" width="1" height="4"/>
	<rect x="58" y="-80" width="1" height="1"/>
</g>
<g>
	<rect x="79" y="-77" width="1" height="4"/>
	<rect x="81" y="-75" width="1" height="2"/>
	<rect x="80" y="-73" width="1" height="1"/>
	<rect x="83" y="-77" width="1" height="4"/>
	<rect x="82" y="-73" width="1" height="1"/>
</g>
<g>
	<polygon points="75,-83 75,-82 76,-82 76,-79 77,-79 77,-82 78,-82 78,-83 	"/>
	<rect x="73" y="-80" width="1" height="1"/>
	<rect x="74" y="-79" width="2" height="1"/>
</g>
<g>
	<polygon points="87,-71 87,-70 88,-70 88,-67 89,-67 89,-70 90,-70 90,-71 	"/>
	<rect x="86" y="-67" width="2" height="1"/>
	<rect x="85" y="-68" width="1" height="1"/>
</g>
<g>
	<rect x="25" y="-77" width="1" height="4"/>
	<rect x="27" y="-75" width="1" height="2"/>
	<rect x="26" y="-73" width="1" height="1"/>
	<rect x="29" y="-77" width="1" height="4"/>
	<rect x="28" y="-73" width="1" height="1"/>
</g>
<g>
	<polygon points="21,-83 21,-82 22,-82 22,-79 23,-79 23,-82 24,-82 24,-83 	"/>
	<rect x="19" y="-80" width="1" height="1"/>
	<rect x="20" y="-79" width="2" height="1"/>
</g>
<g>
	<polygon points="33,-71 33,-70 34,-70 34,-67 35,-67 35,-70 36,-70 36,-71 	"/>
	<rect x="32" y="-67" width="2" height="1"/>
	<rect x="31" y="-68" width="1" height="1"/>
</g>
<g>
	<polygon points="9,-77 9,-76 10,-76 10,-73 11,-73 11,-76 12,-76 12,-77 	"/>
	<rect x="8" y="-73" width="2" height="1"/>
	<rect x="7" y="-74" width="1" height="1"/>
</g>
<g>
	<polygon points="15,-71 15,-70 16,-70 16,-67 17,-67 17,-70 18,-70 18,-71 	"/>
	<rect x="14" y="-67" width="2" height="1"/>
	<rect x="13" y="-68" width="1" height="1"/>
</g>
<g>
	<rect x="1" y="-84" width="1" height="4"/>
	<rect x="3" y="-82" width="1" height="2"/>
	<rect x="2" y="-80" width="1" height="1"/>
	<rect x="5" y="-84" width="1" height="4"/>
	<rect x="4" y="-80" width="1" height="1"/>
</g>
<g>
	<polygon points="93,-83 93,-82 94,-82 94,-79 95,-79 95,-82 96,-82 96,-83 	"/>
	<rect x="91" y="-80" width="1" height="1"/>
	<rect x="92" y="-79" width="2" height="1"/>
</g>
<g>
	<polygon points="99,-77 99,-76 100,-76 100,-73 101,-73 101,-76 102,-76 102,-77 	"/>
	<rect x="98" y="-73" width="2" height="1"/>
	<rect x="97" y="-74" width="1" height="1"/>
</g>
<g>
	<polygon points="117,-77 117,-76 118,-76 118,-73 119,-73 119,-76 120,-76 120,-77 	"/>
	<rect x="116" y="-73" width="2" height="1"/>
	<rect x="115" y="-74" width="1" height="1"/>
</g>
<g>
	<polygon points="123,-71 123,-70 124,-70 124,-67 125,-67 125,-70 126,-70 126,-71 	"/>
	<rect x="122" y="-67" width="2" height="1"/>
	<rect x="121" y="-68" width="1" height="1"/>
</g>
<g>
	<rect x="103" y="-71" width="1" height="4"/>
	<rect x="105" y="-69" width="1" height="2"/>
	<rect x="104" y="-67" width="1" height="1"/>
	<rect x="107" y="-71" width="1" height="4"/>
	<rect x="106" y="-67" width="1" height="1"/>
</g>
<g>
	<rect x="109" y="-84" width="1" height="4"/>
	<rect x="111" y="-82" width="1" height="2"/>
	<rect x="110" y="-80" width="1" height="1"/>
	<rect x="113" y="-84" width="1" height="4"/>
	<rect x="112" y="-80" width="1" height="1"/>
</g>
<rect x="-30" y="8" width="1" height="1"/>
<rect x="-30" y="7" width="1" height="1"/>
<rect x="-29" y="7" width="1" height="1"/>
<rect x="-31" y="7" width="1" height="1"/>
<rect x="-30" y="9" width="1" height="1"/>
<rect x="-30" y="10" width="1" height="1"/>
<rect x="-31" y="11" width="1" height="1"/>
<rect x="-32" y="11" width="1" height="1"/>
<rect x="-33" y="10" width="1" height="1"/>
<rect x="-27" y="14" width="1" height="1"/>
<rect x="-27" y="13" width="1" height="1"/>
<rect x="-27" y="15" width="1" height="1"/>
<rect x="-27" y="16" width="1" height="1"/>
<rect x="-25" y="15" width="1" height="1"/>
<rect x="-25" y="16" width="1" height="1"/>
<rect x="-26" y="17" width="1" height="1"/>
<rect x="-23" y="14" width="1" height="1"/>
<rect x="-23" y="13" width="1" height="1"/>
<rect x="-23" y="15" width="1" height="1"/>
<rect x="-23" y="16" width="1" height="1"/>
<rect x="-24" y="17" width="1" height="1"/>
<rect x="169.6" y="3" class="st1" width="451.5" height="451.5"/>
</svg>
